<?xml version="1.0" encoding="UTF-8"?>
<svg width="180px" height="68px" viewBox="0 0 180 68" version="1.1" xmlns="http://www.w3.org/2000/svg" xmlns:xlink="http://www.w3.org/1999/xlink">
    <!-- Generator: Sketch 51.1 (57501) - http://www.bohemiancoding.com/sketch -->
    <title>goPuffLogoWhite@SVG</title>
    <desc>Created with Sketch.</desc>
    <defs></defs>
    <g id="Symbols" stroke="none" stroke-width="1" fill="none" fill-rule="evenodd">
        <g id="HeaderSimple" transform="translate(-30.000000, -17.000000)" fill="#FFFFFF">
            <g id="Header">
                <g id="GoPuffLogoVect/White" transform="translate(30.000000, 0.000000)">
                    <path d="M178.066457,23.4750885 L176.798905,23.4750885 C175.089676,23.4796656 172.595412,23.5956189 170.730387,24.553759 C168.880487,25.4996935 167.98352,27.144399 167.989571,29.5733147 L167.997134,31.8237234 L176.275548,31.7993122 L175.582781,37.7785338 L168.010747,37.8014193 L168.075788,61.4635134 C168.09999,69.9067418 163.100874,75.9668255 160.949969,78.1790917 L159.538721,79.6254561 L159.455528,79.5110285 C157.186641,81.334241 152.21929,84.547367 145.3854,84.5672011 C141.393671,84.5672011 137.362614,83.491582 132.693243,82.2435587 C126.415988,80.5683392 119.302269,78.6657903 110.025544,78.6657903 L109.812269,78.6657903 C108.055262,78.6753422 106.299105,78.7460751 104.546937,78.8778627 L104.816178,82.3091639 L97.3878404,76.1209213 L103.798204,69.3025643 L104.05837,72.6331692 C106.026397,72.494115 107.998287,72.4177919 109.971091,72.4043141 L110.222181,72.4043141 C122.236697,72.4043141 130.220156,74.7569448 136.049684,76.4748839 C139.685955,77.5489773 142.538703,78.3942155 145.190276,78.3942155 C151.830554,78.3743814 156.722275,74.0139285 156.926475,73.8293187 C161.320554,68.7853517 162.03601,65.0733216 162.013321,58.1863081 L161.957355,37.8166763 L151.773075,37.8471903 L151.830554,59.5121421 C151.842654,63.260789 148.81142,66.0375645 146.634801,66.3747444 L145.386913,66.5776626 L143.036345,61.8800298 L144.217679,61.0027518 C145.755985,59.8538991 145.784724,59.8325393 145.774136,56.233411 L145.721196,37.8593959 L138.787475,37.8777043 L139.47873,31.9015342 L145.707582,31.8817001 L145.701532,29.5748404 C145.689431,25.3410206 146.904042,22.3216587 149.416457,20.341299 C151.838116,18.4326472 155.536403,17.4973926 160.724593,17.4836613 L163.122051,17.4745071 L161.188958,23.5239109 L159.918381,23.5239109 C158.272682,23.528488 155.884299,23.6444413 154.188684,24.6025814 C152.539959,25.5363103 151.741311,27.174913 151.750386,29.6190857 L151.756437,31.866443 L161.943742,31.8389804 L161.937691,29.5290694 C161.916515,21.0827896 166.602524,17.4684043 177.606629,17.4348389 L180.001061,17.4348389 L178.066457,23.4750885 Z M137.164464,66.4205154 L136.002794,66.4205154 C134.414573,66.4205154 132.803662,64.984831 131.781151,63.2745203 C128.467062,65.8972 124.041219,66.3350762 121.524266,66.3427047 L121.070489,66.3457561 C117.142288,66.3457561 106.69633,66.3427047 106.66154,53.1560724 L106.604062,31.866443 L112.829889,31.851186 L112.887368,53.255243 C112.900981,56.5675395 113.931056,59.9515439 121.498552,59.9515439 C127.430937,59.9362869 130.156627,57.513474 130.141501,52.3215141 L130.08856,31.8023636 L136.311363,31.7855809 L136.379429,56.309696 C136.388505,59.4648454 136.939088,60.0949598 138.085633,61.1141279 L139.018902,61.9441092 L137.164464,66.4205154 Z M90.45412,46.7740659 L78.7632988,46.8061056 L78.7950632,59.4694225 C78.8086765,63.2424806 75.1587928,66.3625388 74.7443426,66.7058215 L72.920157,68.2040597 L70.4062296,62.0387026 L71.4242038,61.2194013 C71.4468927,61.1980415 72.5707484,60.2078617 72.5677232,59.0147636 L72.4618418,19.9003714 L90.4238682,19.8500233 C99.9652967,19.8500233 104.81164,24.405766 104.831304,33.3875668 C104.855506,41.9970966 99.748996,46.7496546 90.45412,46.7740659 Z M92.1830124,26.1771047 L92.1830124,25.0419832 L92.1512479,26.1771047 L78.7027951,26.2137215 L78.7436351,40.5354752 L90.3815156,40.5019097 C93.225188,40.4958069 95.3564297,39.9099378 96.7177623,38.7610851 C98.0367422,37.6488492 98.6750559,35.9949895 98.667493,33.6988097 C98.6523671,28.8486068 96.3502025,26.1771047 92.1830124,26.1771047 Z M53.1097435,66.7042958 L52.1250463,66.7058215 C47.7513233,66.7066419 43.552116,64.9753656 40.4311999,61.8846069 C37.2955973,58.7431889 35.5682176,54.5429345 35.5530917,50.0527969 L35.5500665,48.583547 C35.5364531,44.0934095 37.241144,39.8855266 40.3495199,36.7380058 C43.5259625,33.5859079 47.6871023,31.8481346 52.0796686,31.835929 L53.0159628,31.8328776 C57.4992846,31.8328776 61.6573992,33.5508168 64.7688004,36.6693493 C67.9114535,39.7857356 69.6852711,44.042207 69.6937989,48.4874279 L69.6998493,49.9566778 C69.7074123,54.4132499 67.9830577,58.6180814 64.8414048,61.8052704 C61.7315162,64.9512655 57.5658387,66.6905645 53.1097435,66.7042958 Z M63.4679715,48.5026849 C63.4528456,42.7721526 58.783475,38.1080851 53.0613406,38.1080851 L53.0613406,36.9668609 L53.0295762,38.1080851 L52.0932819,38.1096108 C46.387786,38.1263936 41.7592554,42.8148722 41.7758939,48.5667643 L41.7819443,50.0329628 C41.7955576,55.7695979 46.4346764,60.4321397 52.1220211,60.4321397 L53.0946176,60.4321397 C55.8519093,60.4325124 58.495524,59.3238394 60.4397629,57.3517497 C62.3903204,55.4025374 63.4825522,52.744499 63.4709967,49.9749862 L63.4679715,48.5026849 Z M31.4479178,42.8743745 L31.5069089,64.7071534 C31.5205222,69.7007722 29.7447395,73.7331995 26.3701474,76.3665591 C23.6111802,78.5223744 19.7782728,79.7139468 15.5823434,79.7261524 L15.5142768,79.7261524 C10.0265941,79.7261524 4.72042241,77.8480146 2.31086383,75.0529307 L1.14163045,73.7011598 L5.5977256,69.9769241 L6.7094805,70.8969217 C8.86189849,72.6743631 11.8749812,73.695057 14.9803319,73.695057 C20.0656652,73.6813257 25.4746931,70.8679333 25.4595672,64.7239361 L25.4535169,63.617803 C23.4402573,65.1328239 20.4770902,66.4342467 16.2206571,66.447978 C5.91990763,66.447978 0.0389510971,60.7830509 0.00869926307,50.9071894 L0.00113630457,47.0273322 C-0.0276029378,36.7349544 8.21299665,32.0220645 15.8818366,31.999179 C20.0535645,31.999179 23.707986,33.2548308 26.2400645,35.4960853 C27.1763588,33.5080971 28.8235712,31.6009711 30.9699388,31.0440903 L32.8107629,30.5634945 L33.7954601,36.5915385 L32.9378206,37.2308072 C31.773125,38.0897767 31.4403548,39.3561084 31.4479178,42.8743745 Z M25.2916695,47.1280284 C25.2795688,42.2717227 21.3453178,38.3186319 16.5231755,38.3186319 L16.5231755,37.1819847 L16.4959488,38.3186319 L15.2677243,38.323209 C10.2928102,38.3354146 6.09385568,42.3922531 6.10898159,47.1829537 L6.12108233,51.4182992 C6.13469565,56.1647545 10.3412132,60.1742962 15.3040265,60.1742962 L16.5519147,60.1697191 C18.8872922,60.1729841 21.1267211,59.232855 22.7701792,57.559245 C24.400862,55.9205425 25.3128078,53.6912541 25.3022577,51.3694768 L25.2916695,47.1280284 Z" id="path-1"></path>
                </g>
            </g>
        </g>
    </g>
</svg>